<svg width="10" height="17" viewBox="0 0 10 17" fill="none" xmlns="http://www.w3.org/2000/svg">
<path d="M4.99969 2.9203C5.96189 2.9203 6.74429 3.6874 6.74429 4.6305C6.74429 5.5708 5.96189 6.3378 4.99969 6.3378C4.03759 6.3378 3.25518 5.5708 3.25518 4.6305C3.25518 3.6874 4.03759 2.9203 4.99969 2.9203ZM4.99969 8.7582C7.32389 8.7582 9.21339 6.906 9.21339 4.6305C9.21339 2.3522 7.32389 0.5 4.99969 0.5C2.67559 0.5 0.788985 2.3522 0.788985 4.6305C0.788985 6.906 2.67559 8.7582 4.99969 8.7582ZM6.70368 12.1273C7.56148 11.9342 8.38748 11.6018 9.14958 11.1331C9.72628 10.778 9.90019 10.0308 9.53789 9.4655C9.17279 8.8974 8.41349 8.7269 7.83389 9.0848C6.10969 10.1473 3.88979 10.1473 2.16259 9.0848C1.58589 8.7269 0.823786 8.8974 0.461486 9.4655C0.0992857 10.0308 0.273186 10.778 0.849886 11.1331C1.61199 11.6018 2.43789 11.9342 3.29569 12.1273L0.939686 14.434C0.458586 14.9056 0.458586 15.6726 0.939686 16.1442C1.18309 16.38 1.49609 16.4993 1.81199 16.4993C2.12789 16.4993 2.44369 16.38 2.68719 16.1442L4.99969 13.8772L7.31519 16.1442C7.79629 16.6186 8.57578 16.6186 9.05978 16.1442C9.54078 15.6726 9.54078 14.9056 9.05978 14.434L6.70368 12.1273Z" fill="white"/>
</svg>
