<svg width="16" height="9" viewBox="0 0 16 9" fill="none" xmlns="http://www.w3.org/2000/svg">
<path d="M15.8574 7.92067C15.8144 7.85177 15.5484 7.29917 14.2683 6.16337C12.9282 4.97407 13.1082 5.16727 14.7223 3.11077C15.7054 1.85837 16.0984 1.09357 15.9754 0.766569C15.8584 0.454869 15.1353 0.537069 15.1353 0.537069L12.7312 0.550469C12.7312 0.550469 12.5531 0.527569 12.4201 0.603069C12.2911 0.677669 12.2081 0.84977 12.2081 0.84977C12.2081 0.84977 11.8271 1.81917 11.3191 2.64327C10.248 4.38227 9.81891 4.47407 9.64391 4.36607C9.23691 4.11457 9.33891 3.35457 9.33891 2.81537C9.33891 1.12987 9.60591 0.427169 8.81791 0.245469C8.55591 0.185269 8.36381 0.14517 7.69481 0.13847C6.83671 0.12987 6.10971 0.141269 5.69861 0.333469C5.42461 0.461569 5.21361 0.747469 5.34261 0.763669C5.50161 0.783769 5.86171 0.856469 6.05271 1.10497C6.29971 1.42527 6.29072 2.14617 6.29072 2.14617C6.29072 2.14617 6.43271 4.12987 5.95971 4.37657C5.63461 4.54577 5.18961 4.20067 4.23451 2.62227C3.74551 1.81437 3.37551 0.920469 3.37551 0.920469C3.37551 0.920469 3.30451 0.75417 3.17751 0.66517C3.02341 0.55717 2.80741 0.52277 2.80741 0.52277L0.521315 0.536169C0.521315 0.536169 0.178215 0.54567 0.0522146 0.68817C-0.0597654 0.81527 0.0432138 1.07727 0.0432138 1.07727C0.0432138 1.07727 1.83341 5.08017 3.85951 7.09847C5.71861 8.94837 7.82881 8.82697 7.82881 8.82697H8.78491C8.78491 8.82697 9.07391 8.79637 9.22091 8.64437C9.35691 8.50477 9.35191 8.24277 9.35191 8.24277C9.35191 8.24277 9.33292 7.01617 9.92902 6.83547C10.516 6.65767 11.2701 8.02097 12.0691 8.54587C12.6732 8.94267 13.1322 8.85567 13.1322 8.85567L15.2693 8.82697C15.2693 8.82697 16.3874 8.76097 15.8574 7.92067Z" fill="white"/>
</svg>
