<svg width="16" height="17" viewBox="0 0 16 17" fill="none" xmlns="http://www.w3.org/2000/svg">
<path d="M9.41502 0.863525C8.94862 0.863525 8.51092 1.11203 8.23022 1.47033C7.94942 1.82853 7.79472 2.26533 7.68192 2.72553C7.50292 3.46563 7.44762 4.28683 7.43442 5.02693C6.12352 5.11843 4.93642 5.52643 3.95052 6.15673C3.55042 5.80363 3.06852 5.60753 2.60652 5.61273C2.08042 5.61793 1.58082 5.85593 1.20942 6.34503C0.499819 7.27863 0.581619 8.80593 1.40392 9.71333C1.35312 9.99323 1.31552 10.2808 1.31552 10.5711C1.31552 13.6466 4.30862 16.1363 8.00032 16.1363C11.6919 16.1363 14.685 13.644 14.685 10.5711C14.685 10.2808 14.6474 9.99323 14.5966 9.71333C15.4189 8.80593 15.5007 7.27863 14.7911 6.34503C14.4197 5.85593 13.9202 5.61793 13.394 5.61273C12.932 5.60753 12.4501 5.80363 12.05 6.15673C11.0685 5.52903 9.88812 5.12113 8.58392 5.02693C8.60152 4.34433 8.64802 3.63563 8.77842 3.10213C8.86022 2.76743 8.95742 2.52423 9.06132 2.39083C9.16522 2.25743 9.24042 2.20253 9.41502 2.20253C9.79302 2.20253 9.84172 2.33063 10.0694 2.64193C10.1843 2.79883 10.3169 2.99493 10.5292 3.18583C10.7414 3.37673 11.0553 3.54153 11.3957 3.54153V2.20253C11.3006 2.20253 11.283 2.19993 11.2188 2.13973C11.1547 2.07963 11.0663 1.94103 10.9359 1.76323C10.675 1.40493 10.1688 0.863525 9.41502 0.863525ZM13.0934 0.989126C12.2136 0.989126 11.5018 1.83113 11.5018 2.87203C11.5018 3.91283 12.2136 4.75493 13.0934 4.75493C13.9732 4.75493 14.685 3.91283 14.685 2.87203C14.685 1.83113 13.9732 0.989126 13.0934 0.989126ZM13.0934 1.65853C13.6593 1.65853 14.1191 2.20253 14.1191 2.87203C14.1191 3.54153 13.6593 4.08543 13.0934 4.08543C12.5275 4.08543 12.0677 3.54153 12.0677 2.87203C12.0677 2.20253 12.5275 1.65853 13.0934 1.65853ZM8.00032 6.07303C11.1326 6.07303 13.7831 8.13643 13.7831 10.5711C13.7831 13.0085 11.1326 15.0693 8.00032 15.0693C4.86792 15.0693 2.21742 13.0085 2.21742 10.5711C2.21742 8.13643 4.86792 6.07303 8.00032 6.07303ZM2.62422 6.67973C2.78112 6.68233 2.94472 6.72423 3.10172 6.80523C2.53352 7.31523 2.08262 7.90103 1.77532 8.56273C1.56312 8.04483 1.62062 7.39892 1.88142 7.05632C2.07152 6.80522 2.33462 6.67713 2.62422 6.67973ZM13.3764 6.67973C13.6659 6.67713 13.929 6.80522 14.1191 7.05632C14.38 7.39892 14.4374 8.04483 14.2252 8.56273C13.9179 7.90103 13.467 7.31523 12.8989 6.80523C13.0558 6.72423 13.2194 6.68233 13.3764 6.67973ZM5.73662 8.35343C5.17072 8.35343 4.71092 8.89743 4.71092 9.56693C4.71092 10.2364 5.17072 10.7803 5.73662 10.7803C6.30262 10.7803 6.76242 10.2364 6.76242 9.56693C6.76242 8.89743 6.30262 8.35343 5.73662 8.35343ZM10.2639 8.35343C9.69802 8.35343 9.23822 8.89743 9.23822 9.56693C9.23822 10.2364 9.69802 10.7803 10.2639 10.7803C10.8298 10.7803 11.2896 10.2364 11.2896 9.56693C11.2896 8.89743 10.8298 8.35343 10.2639 8.35343ZM5.18842 12.475C5.54882 13.3563 6.66292 14.2115 8.00032 14.2115C9.33772 14.2115 10.4695 13.3563 10.8298 12.475C10.1755 12.9745 9.14312 13.3118 8.00032 13.3118C6.85742 13.3118 5.84282 12.9745 5.18842 12.475Z" fill="white"/>
</svg>
